<svg xmlns="http://www.w3.org/2000/svg" width="66.584" height="66.583" viewBox="0 0 66.584 66.583">
  <g id="global_1_" data-name="global (1)" transform="translate(0.01 0)">
    <path id="Path_20" data-name="Path 20" d="M24.878,33.755A8.878,8.878,0,1,0,16,24.878,8.877,8.877,0,0,0,24.878,33.755Zm0-7.768a3.321,3.321,0,0,1-1.11-6.454V18.219h2.219v1.314a3.33,3.33,0,0,1,2.219,3.125H25.987a1.11,1.11,0,1,0-1.11,1.11,3.321,3.321,0,0,1,1.11,6.454v1.314H23.768V30.222A3.33,3.33,0,0,1,21.549,27.1h2.219a1.11,1.11,0,1,0,1.11-1.11Zm0,0" transform="translate(-13.789 -13.781)" fill="#ff5c00"/>
    <path id="Path_21" data-name="Path 21" d="M94.1,413.169a3.4,3.4,0,0,0,.555-1.853,3.329,3.329,0,0,0-6.1-1.842A3.394,3.394,0,0,0,88,411.315a3.335,3.335,0,0,0,6.1,1.853Zm0,0" transform="translate(-75.802 -351.391)" fill="#ff5c00"/>
    <path id="Path_22" data-name="Path 22" d="M344.555,25.473A3.4,3.4,0,0,0,344,27.327a3.329,3.329,0,0,0,6.1,1.842,3.394,3.394,0,0,0,.555-1.842,3.335,3.335,0,0,0-6.1-1.853Zm0,0" transform="translate(-296.291 -20.669)" fill="#ff5c00"/>
    <path id="Path_23" data-name="Path 23" d="M300.018,171.2a16.657,16.657,0,0,1-2.858,1.977,28.979,28.979,0,0,1,.92,6.457H303.6A14.355,14.355,0,0,0,300.018,171.2Zm0,0" transform="translate(-255.949 -147.452)" fill="#ff5c00"/>
    <path id="Path_24" data-name="Path 24" d="M248,137.68v6.372a14.345,14.345,0,0,0,4.137-.942C251.085,140.235,249.568,138.309,248,137.68Zm0,0" transform="translate(-213.607 -118.582)" fill="#ff5c00"/>
    <path id="Path_25" data-name="Path 25" d="M303.6,248H298.08a28.969,28.969,0,0,1-.92,6.46,16.691,16.691,0,0,1,2.858,1.973A14.353,14.353,0,0,0,303.6,248Zm0,0" transform="translate(-255.949 -213.599)" fill="#ff5c00"/>
    <path id="Path_26" data-name="Path 26" d="M280.22,310.184a15.871,15.871,0,0,1-1.923,3.662,14.426,14.426,0,0,0,3.884-2.3A14.573,14.573,0,0,0,280.22,310.184Zm0,0" transform="translate(-239.702 -267.157)" fill="#ff5c00"/>
    <path id="Path_27" data-name="Path 27" d="M282.2,145.738a14.41,14.41,0,0,0-3.884-2.3,15.856,15.856,0,0,1,1.923,3.662A14.571,14.571,0,0,0,282.2,145.738Zm0,0" transform="translate(-239.722 -123.544)" fill="#ff5c00"/>
    <path id="Path_28" data-name="Path 28" d="M253.521,248H248v4.492a16.589,16.589,0,0,1,4.781,1.037A27.1,27.1,0,0,0,253.521,248Zm0,0" transform="translate(-213.608 -213.599)" fill="#ff5c00"/>
    <path id="Path_29" data-name="Path 29" d="M248,302.755c1.568-.629,3.085-2.552,4.137-5.43a14.379,14.379,0,0,0-4.137-.942Zm0,0" transform="translate(-213.607 -255.27)" fill="#ff5c00"/>
    <path id="Path_30" data-name="Path 30" d="M248,197.673h5.521a27.094,27.094,0,0,0-.74-5.529A16.59,16.59,0,0,1,248,193.181Zm0,0" transform="translate(-213.607 -165.492)" fill="#ff5c00"/>
    <path id="Path_31" data-name="Path 31" d="M139.993,256.434a16.688,16.688,0,0,1,2.858-1.977,28.97,28.97,0,0,1-.92-6.457h-5.52A14.349,14.349,0,0,0,139.993,256.434Zm0,0" transform="translate(-117.497 -213.599)" fill="#ff5c00"/>
    <path id="Path_32" data-name="Path 32" d="M197.72,248H192.2a27.1,27.1,0,0,0,.74,5.529,16.591,16.591,0,0,1,4.781-1.037Zm0,0" transform="translate(-165.547 -213.599)" fill="#ff5c00"/>
    <path id="Path_33" data-name="Path 33" d="M175.644,310.184a14.574,14.574,0,0,0-1.964,1.367,14.412,14.412,0,0,0,3.884,2.3A15.876,15.876,0,0,1,175.644,310.184Zm0,0" transform="translate(-149.597 -267.157)" fill="#ff5c00"/>
    <path id="Path_34" data-name="Path 34" d="M206.313,137.68c-1.568.629-3.085,2.553-4.137,5.43a14.346,14.346,0,0,0,4.137.942Zm0,0" transform="translate(-174.14 -118.582)" fill="#ff5c00"/>
    <path id="Path_35" data-name="Path 35" d="M197.72,193.181a16.59,16.59,0,0,1-4.781-1.037,27.1,27.1,0,0,0-.74,5.529h5.521Zm0,0" transform="translate(-165.547 -165.491)" fill="#ff5c00"/>
    <path id="Path_36" data-name="Path 36" d="M206.313,302.755v-6.372a14.381,14.381,0,0,0-4.137.942C203.228,300.2,204.745,302.126,206.313,302.755Zm0,0" transform="translate(-174.14 -255.27)" fill="#ff5c00"/>
    <path id="Path_37" data-name="Path 37" d="M177.567,143.4a14.416,14.416,0,0,0-3.887,2.3,14.571,14.571,0,0,0,1.964,1.367,15.869,15.869,0,0,1,1.923-3.67Zm0,0" transform="translate(-149.596 -123.507)" fill="#ff5c00"/>
    <path id="Path_38" data-name="Path 38" d="M136.41,179.633h5.52a28.969,28.969,0,0,1,.92-6.461,16.691,16.691,0,0,1-2.858-1.973A14.351,14.351,0,0,0,136.41,179.633Zm0,0" transform="translate(-117.497 -147.452)" fill="#ff5c00"/>
    <path id="Path_39" data-name="Path 39" d="M344.878,336a8.878,8.878,0,1,0,8.878,8.878A8.877,8.877,0,0,0,344.878,336Zm0,7.768a3.321,3.321,0,0,1,1.11,6.454v1.314h-2.219v-1.314a3.33,3.33,0,0,1-2.219-3.125h2.219a1.11,1.11,0,1,0,1.11-1.11,3.321,3.321,0,0,1-1.11-6.454v-1.314h2.219v1.314a3.33,3.33,0,0,1,2.219,3.125h-2.219a1.11,1.11,0,1,0-1.11,1.11Zm0,0" transform="translate(-289.401 -289.392)" fill="#ff5c00"/>
    <path id="Path_40" data-name="Path 40" d="M65.833,172.953a24.43,24.43,0,0,0,27.176,33.281l-.415-2.179A22.213,22.213,0,0,1,67.883,173.8Zm0,0" transform="translate(-55.13 -148.962)" fill="#ff5c00"/>
    <path id="Path_41" data-name="Path 41" d="M286.458,391a23.077,23.077,0,0,0,2.243-.791l-.84-2.054c-.666.272-1.349.513-2.037.719Zm0,0" transform="translate(-246.185 -334.31)" fill="#ff5c00"/>
    <path id="Path_42" data-name="Path 42" d="M201.313,85.857l3.329,3.329a1.11,1.11,0,0,0,1.569,0l3.329-3.329-1.569-1.569L206.4,85.856a24.428,24.428,0,0,0-33.6-20.027l.848,2.05a22.194,22.194,0,0,1,30.458,17.637L202.886,84.3Zm0,0" transform="translate(-148.839 -55.111)" fill="#ff5c00"/>
    <path id="Path_43" data-name="Path 43" d="M182.427,2.929a4.615,4.615,0,0,0-.555.677,5.29,5.29,0,0,0-.6,1.232,30.653,30.653,0,0,0-12.517-2.619,31.12,31.12,0,0,0-10.72,1.9l-.754-2.086a33.392,33.392,0,0,1,25.146.9Zm0,0" transform="translate(-135.473 0)" fill="#ff5c00"/>
    <path id="Path_44" data-name="Path 44" d="M11.843,186.906a5.585,5.585,0,0,0-1.343,1.786,33.335,33.335,0,0,1-8.212-36.454l2.064.811a31.121,31.121,0,0,0,7.491,33.857Zm0,0" transform="translate(0 -131.121)" fill="#ff5c00"/>
    <path id="Path_45" data-name="Path 45" d="M167.287,447.662a33.385,33.385,0,0,1-25.845-.633,4.618,4.618,0,0,0,.555-.677,5.289,5.289,0,0,0,.6-1.232,31.22,31.22,0,0,0,23.881.477Zm0,0" transform="translate(-121.831 -383.376)" fill="#ff5c00"/>
    <path id="Path_46" data-name="Path 46" d="M406.411,89.242a33.226,33.226,0,0,1-2.031,11.474l-2.086-.754a31.124,31.124,0,0,0-7.735-33.214,5.564,5.564,0,0,0,1.343-1.786,33.213,33.213,0,0,1,10.509,24.28Zm0,0" transform="translate(-339.836 -55.951)" fill="#ff5c00"/>
  </g>
</svg>
