<svg xmlns="http://www.w3.org/2000/svg" width="70.927" height="70.927" viewBox="0 0 70.927 70.927">
  <g id="_07-statistics" data-name="07-statistics" transform="translate(0 0)">
    <path id="Path_18" data-name="Path 18" d="M37.234,33.247a6.2,6.2,0,0,0,4.315-1.753L47.7,34.57a6.106,6.106,0,0,0-.076.755,6.234,6.234,0,0,0,12.468,0,6.158,6.158,0,0,0-.625-2.67L67.81,24.31a6.158,6.158,0,0,0,2.67.625A6.241,6.241,0,0,0,76.715,18.7a6.14,6.14,0,0,0-.311-1.846l7.25-5.436a6.23,6.23,0,1,0-2.783-5.185,6.14,6.14,0,0,0,.311,1.846l-7.25,5.436a6.207,6.207,0,0,0-9.06,7.856l-8.344,8.344a6.126,6.126,0,0,0-6.985,1.128l-6.151-3.075a6.105,6.105,0,0,0,.076-.755,6.234,6.234,0,1,0-6.234,6.234Zm0,0" transform="translate(-26.706)" fill="#ff5c00"/>
    <path id="Path_19" data-name="Path 19" d="M68.849,195.992H66.633V152.078A2.077,2.077,0,0,0,64.555,150H56.243a2.077,2.077,0,0,0-2.078,2.078v43.914H50.009V164.546a2.077,2.077,0,0,0-2.078-2.078H39.619a2.077,2.077,0,0,0-2.078,2.078v31.446H33.386V181.169a2.077,2.077,0,0,0-2.078-2.078H23a2.077,2.077,0,0,0-2.078,2.078v14.823H16.762V172.857a2.077,2.077,0,0,0-2.078-2.078H6.372a2.077,2.077,0,0,0-2.078,2.078v23.134H2.078a2.078,2.078,0,1,0,0,4.156H68.849a2.078,2.078,0,1,0,0-4.156Zm0,0" transform="translate(0 -129.221)" fill="#ff5c00"/>
  </g>
</svg>
