<svg xmlns="http://www.w3.org/2000/svg" width="67.078" height="67.034" viewBox="0 0 67.078 67.034">
  <g id="Wheat_Bag" data-name="Wheat Bag" transform="translate(0.001)">
    <g id="Glyph" transform="translate(-0.001)">
      <path id="Path_1" data-name="Path 1" d="M240.717,167.035c-.71-2.729-.891-3.772,0-5.24-.71-2.728-.891-3.772,0-5.24-.694-2.691-.874-3.709-.052-5.144a6.078,6.078,0,0,0-1.323-2.456l-2.861-5.5a1.049,1.049,0,0,0-1.86.967l2.422,4.658a10.8,10.8,0,0,0-1.769,1.227,9.955,9.955,0,0,0-4.058-3.346l-2.732-5.255a1.049,1.049,0,0,0-1.86.967l2.732,5.255a9.957,9.957,0,0,0,.4,5.236,10.4,10.4,0,0,0-2.02.746l-2.419-4.653a1.049,1.049,0,0,0-1.86.967l2.859,5.5a8.037,8.037,0,0,0,2.2,3.78,9.863,9.863,0,0,0-1.156.508,1.048,1.048,0,0,0-.444,1.405,11.8,11.8,0,0,0,2.725,3.332,1.047,1.047,0,0,0-.307,1.317,11.8,11.8,0,0,0,2.724,3.332,1.048,1.048,0,0,0-.307,1.317,11.8,11.8,0,0,0,2.725,3.332,1.048,1.048,0,0,0-.307,1.317c.079.153,1.961,3.76,5.458,4.865,2.456.776,5.523-.464,6.854-.973C246.481,179.251,239.145,175.058,240.717,167.035Z" transform="translate(-194.077 -122.654)" fill="#ff5c00"/>
      <path id="Path_2" data-name="Path 2" d="M386.026,118.267a11.8,11.8,0,0,0,.88-4.213,1.048,1.048,0,0,0-1.042-1.042,8.461,8.461,0,0,0-1.433.14,7.69,7.69,0,0,0,.384-4.418v-6.2a1.049,1.049,0,0,0-2.1,0v5.25a10.806,10.806,0,0,0-2.135.273,9.953,9.953,0,0,0-2.057-4.841V97.291a1.049,1.049,0,0,0-2.1,0v5.923a9.959,9.959,0,0,0-2.056,4.833,10.4,10.4,0,0,0-2.136-.27v-5.245a1.049,1.049,0,0,0-2.1,0v6.2a8.035,8.035,0,0,0,.205,4.367,9.851,9.851,0,0,0-1.259-.082,1.048,1.048,0,0,0-1.042,1.042,11.8,11.8,0,0,0,.88,4.213,1.048,1.048,0,0,0-.88,1.027,11.8,11.8,0,0,0,.88,4.213,1.047,1.047,0,0,0-.88,1.027,11.8,11.8,0,0,0,.88,4.213,1.047,1.047,0,0,0-.88,1.027c0,.172.005,4.241,2.6,6.834a9.908,9.908,0,0,0,5.786,2.529v10.556a1.049,1.049,0,0,0,2.1,0V139.138a9.9,9.9,0,0,0,5.78-2.528c2.594-2.594,2.6-6.663,2.6-6.834a1.048,1.048,0,0,0-.88-1.027,11.8,11.8,0,0,0,.88-4.213,1.048,1.048,0,0,0-.88-1.027,11.8,11.8,0,0,0,.88-4.213A1.048,1.048,0,0,0,386.026,118.267Z" transform="translate(-319.829 -83.666)" fill="#ff5c00"/>
      <path id="Path_3" data-name="Path 3" d="M49.243,254.567c-5.663.447-11.688-4.048-11.348-8.016-1.849-2.052-2.54-2.971-2.417-4.65-1.849-2.052-2.54-2.971-2.417-4.65-2.1-2.3-3.357-4.227-1.713-6.319-.9-1.514-2.42-4.865-3.421-6.934H2.476c-1.994,12.177-1.467,23.559-.459,28.1-.26.487-2.017,2.764-2.017,3.342a3.547,3.547,0,0,0,4.905,3.193c16.329,3.539,27.808,4.135,44.989.8a2.462,2.462,0,0,0,1.719-3.551h0a2.455,2.455,0,0,0-2.37-1.317Z" transform="translate(0 -194.654)" fill="#ff5c00"/>
      <path id="Path_4" data-name="Path 4" d="M51,15.781C46.164,10.34,34.8,0,29.345,0,23.082,0,11.028,11.7,6.838,16.769H3.21A3.188,3.188,0,0,0,0,19.76,3.132,3.132,0,0,0,.8,22.01a3.142,3.142,0,0,0,2.031,5.225l0,.015H27.147a3.23,3.23,0,0,1,3.491-3.3.942.942,0,0,0,.886-1.358l-.838-1.613c-1.921-3.656,3.707-6.549,5.579-2.9.485.945,1.619,2.666,2.619,1.386a3.18,3.18,0,0,1,5.378.363l.029.057a2.079,2.079,0,0,0,3.926-.967v-.047A3.1,3.1,0,0,1,51,15.781ZM19.912,14.673a1.048,1.048,0,1,1,1.048-1.048A1.048,1.048,0,0,1,19.912,14.673ZM24.1,10.481a1.048,1.048,0,1,1,1.048-1.048A1.048,1.048,0,0,1,24.1,10.481Zm2.1,4.192a1.048,1.048,0,1,1,1.048-1.048A1.048,1.048,0,0,1,26.2,14.673Zm1.048-8.385A1.048,1.048,0,1,1,28.3,5.24,1.048,1.048,0,0,1,27.249,6.288Zm2.1,3.144a1.048,1.048,0,1,1,1.048-1.048A1.048,1.048,0,0,1,29.345,9.433Zm2.1,5.24a1.048,1.048,0,1,1,1.048-1.048A1.048,1.048,0,0,1,31.441,14.673Zm1.048-7.337a1.048,1.048,0,1,1,1.048-1.048A1.048,1.048,0,0,1,32.489,7.337Zm2.1,4.192a1.048,1.048,0,1,1,1.048-1.048A1.048,1.048,0,0,1,34.585,11.529Zm4.192,3.144a1.048,1.048,0,1,1,1.048-1.048A1.048,1.048,0,0,1,38.778,14.673Z" transform="translate(0.001)" fill="#ff5c00"/>
    </g>
  </g>
</svg>
