<svg xmlns="http://www.w3.org/2000/svg" width="67.842" height="67.841" viewBox="0 0 67.842 67.841">
  <g id="Hens" transform="translate(-0.063 -0.072)">
    <g id="Glyph" transform="translate(0.063 0.072)">
      <path id="Path_6" data-name="Path 6" d="M42.03,369.935a108.822,108.822,0,0,1-12.547-1.653c-3.315,1.433-5,6.25-5,9.259a1.061,1.061,0,0,1-2.12,0,14.717,14.717,0,0,1,3.877-9.532h0c-.227-.006-.459-.009-.7-.009a9.541,9.541,0,1,0,0,19.083h7.244a13.419,13.419,0,0,1-3-8.171,1.061,1.061,0,0,1,2.12,0,11.1,11.1,0,0,0,3.855,8.171h5.928C38.364,382.178,38.662,374.818,42.03,369.935Z" transform="translate(-13.888 -319.242)" fill="#ff5c00"/>
      <path id="Path_7" data-name="Path 7" d="M219.834,383.464c-1.284.045-2.665.071-4.157.071-1.514,0-2.895-.023-4.164-.064-3.927,3.764-4.541,13.044-.272,17.027h8.871C224.219,396.776,223.626,387,219.834,383.464Z" transform="translate(-180.7 -332.657)" fill="#ff5c00"/>
      <path id="Path_8" data-name="Path 8" d="M332,368c-.577,0-1.143.025-1.711.07h0c2.724,2.561,4.891,7.268,4.891,10.532a1.061,1.061,0,0,1-2.12,0c0-3.448-2.88-8.617-5.8-10.155a107.715,107.715,0,0,1-11.757,1.473h0c3.377,4.88,3.679,12.244.355,17.163h5.928a11.1,11.1,0,0,0,3.855-8.171,1.061,1.061,0,0,1,2.12,0,13.546,13.546,0,0,1-3,8.171H332A9.541,9.541,0,1,0,332,368Z" transform="translate(-273.695 -319.242)" fill="#ff5c00"/>
      <path id="Path_9" data-name="Path 9" d="M57.3,31.867h5.073c2.544-2.642.609-8.282.372-8.875a1.071,1.071,0,0,0-1.565-.493s-.97,1.423-2.222,3.007H28.679c-2.805-1.2-3.92-4.559-4.394-8.115A8.549,8.549,0,0,0,20.452,11.1c1.975-1.982,4.532-4.753,2.485-7a3.211,3.211,0,0,0-4.6-.11.151.151,0,0,1-.257-.106c0-5.513-6.971-4.684-6.357.14l-.017.008c-2.99-2.98-7.5,1.461-4.539,4.456L10,11.329a8.578,8.578,0,0,0-3.588,7.25v1.63L.365,25.817a1.069,1.069,0,0,0,.75,1.81h5.32A30.441,30.441,0,0,0,12.153,44.3a6.9,6.9,0,0,0,9.661,1.421c3.153-2.407,6.351-.943,8.394,2.478,3.214-7.54,9.364-7.757,12.772-.021,2.166-3.549,5.554-5,8.768-2.133a3.485,3.485,0,0,0,5.082-.613,29.624,29.624,0,0,0,3.745-7.2H54.123a1.061,1.061,0,0,1,.036-2.12h6.318a1.061,1.061,0,0,0,.006-2.12H57.339A1.061,1.061,0,0,1,57.3,31.867ZM11.716,19.145a1.06,1.06,0,1,1,1.06-1.06A1.06,1.06,0,0,1,11.716,19.145ZM52.029,33.988H36.136a1.06,1.06,0,0,0-.036,2.12H48.916C25.5,48.83,19.137,27.627,27.524,27.627H56.1a1.061,1.061,0,0,1,0,2.12H40.377a1.06,1.06,0,0,0-.036,2.12H52.029A1.061,1.061,0,0,1,52.029,33.988Z" transform="translate(-0.063 -0.072)" fill="#ff5c00"/>
    </g>
  </g>
</svg>
