<svg id="Fish_Pond" data-name="Fish Pond" xmlns="http://www.w3.org/2000/svg" width="67.091" height="67.135" viewBox="0 0 67.091 67.135">
  <g id="Glyph">
    <ellipse id="Ellipse_1" data-name="Ellipse 1" cx="1.5" cy="0.5" rx="1.5" ry="0.5" transform="translate(35 52.135)" fill="#ff5c00"/>
    <circle id="Ellipse_2" data-name="Ellipse 2" cx="1.048" cy="1.048" r="1.048" transform="translate(53.475 35.642)" fill="#ff5c00"/>
    <path id="Path_10" data-name="Path 10" d="M52.415,16.773C47.174,16.773,30.357,0,18.869,0,5.878,0,0,7.131,0,7.338v55.6a4.193,4.193,0,0,0,4.193,4.193H62.9a4.193,4.193,0,0,0,4.193-4.193V11.531S62.9,16.773,52.415,16.773ZM40.224,35.4c-1.076-.884.344-2.456,1.342-1.611l2.389,1.991c1.206-1.175,3.8-3.282,6.9-3.282,4.206,0,7.482,3.882,7.62,4.047a1.048,1.048,0,0,1,0,1.34c-.137.165-3.413,4.047-7.62,4.047-3.1,0-5.693-2.107-6.9-3.282l-2.389,1.991c-.979.812-2.434-.727-1.342-1.611L42.4,37.215Zm17.433-2.9a2.1,2.1,0,1,1,2.1,2.1A2.1,2.1,0,0,1,57.657,32.5ZM35.733,12.9c5.809,4.15,11.3,8.071,16.682,8.071a1.049,1.049,0,0,1,0,2.1c-6.059,0-11.811-4.11-17.9-8.462C33.382,13.792,34.668,12.134,35.733,12.9ZM11.284,4.915a27.851,27.851,0,0,1,6.537-.722,1.049,1.049,0,0,1,0,2.1,25.753,25.753,0,0,0-6.043.663A1.049,1.049,0,0,1,11.284,4.915ZM3.638,9.123a10.023,10.023,0,0,1,3.2-2.53,1.048,1.048,0,0,1,1.005,1.84A8.3,8.3,0,0,0,5.32,10.375C4.54,11.419,2.819,10.223,3.638,9.123ZM4.57,24.572c.768-1.4,2.77-4.654,4.75-4.654,3.6,0,5.8,3.387,3.906,6.629-5.35,9.16,1.45,9.624,1.45,19.579a7.4,7.4,0,0,1-2.16,5.532c-2.638-.987-5.468-2.48-6.943.4,0,0,3.043-8.258-.661-11.962-4.45-4.45-3.682-9.441-.342-15.523ZM16.618,64.995H7.338A5.247,5.247,0,0,1,2.1,59.753s2.77-2.244,3.38-2.814l1.972-3.944a1.048,1.048,0,0,1,1.312-.511c.368.14,8.45,3.14,8.682,3.476L20.966,60.8A4.277,4.277,0,0,1,16.618,64.995Zm1.915-10.834a28.912,28.912,0,0,0-3.933-1.7c7.078-8.708-4.549-16.316.437-24.852a6.326,6.326,0,0,0-3.292-9.377c6.088-11.406,14.163-3.2,9.674,3.53-6.2,9.3,2.692,11.843,2.692,22.062C24.111,49.867,20.18,50.662,18.534,54.161Zm6.626-19.042a4.717,4.717,0,1,1,4.717,4.717A4.717,4.717,0,0,1,25.159,35.118Zm2.1,10.483a2.621,2.621,0,1,1,2.621,2.621A2.621,2.621,0,0,1,27.256,45.6ZM63.99,54.512a1.049,1.049,0,0,1,0,2.1H61.85c-1.586,0-3.322-1.622-4.3-2.7-2.059,1.717-7.624,5.849-13.517,5.849-7.4,0-12.179-6.446-12.378-6.721a1.048,1.048,0,0,1,0-1.235c.2-.274,4.983-6.721,12.378-6.721,5.893,0,11.458,4.131,13.517,5.849.982-1.082,2.719-2.7,4.3-2.7h2.14a1.049,1.049,0,0,1,0,2.1c-.545,0-1.41,1.034-1.977,2.1C62.579,53.478,63.445,54.512,63.99,54.512ZM61.326,28.3a3.669,3.669,0,1,1,3.669-3.669A3.669,3.669,0,0,1,61.326,28.3Z" fill="#ff5c00"/>
  </g>
</svg>
