<svg xmlns="http://www.w3.org/2000/svg" width="68.711" height="81.967" viewBox="0 0 68.711 81.967">
  <g id="Layer_x0020_1" transform="translate(-0.001 -0.01)">
    <g id="Group_1" data-name="Group 1" transform="translate(0.001 0.01)">
      <path id="Path_5" data-name="Path 5" d="M27.036,3.667c4.336-.761,8.824-1.444,13.185-.511a3.973,3.973,0,0,1,2.85,2.392c-.042.38-.123,1.134-.165,1.511-.148-.088-.444-.268-.592-.36,1.015,1.2,2.135,2.512,2.219,4.16A3.418,3.418,0,0,1,42.6,14.446c-1.656.363-3.477-.352-5.031.514a3.3,3.3,0,0,0-1.212,1.571c.335.624.444,1.624,1.282,1.765.842.208,1.856-.412,2.607.106.243.807.2,1.663.437,2.473.937.905,2.3.014,2.836-.905.676-1.078,1.374-2.593,2.878-2.529,2.529-.373,4.78,1.695,5.386,4.019,0,1.1-.68,2.071-.736,3.17a29,29,0,0,1-5.224,14.447c-.352-2.064-3.132-2.66-3.093-4.865-.162-1.018.525-2.515-.666-3.1a34.789,34.789,0,0,0-6.327-1.923c.127-1.508,1.025-3,.483-4.513-.634-1.7-2.321-2.656-3.294-4.129a5.643,5.643,0,0,1,.55-6.027c2.237-1.441,5.347-1.2,7.257-3.2A16.242,16.242,0,0,1,40.2,8.761c.257-1.163,1.568-1.716,1.93-2.825.225-1.039-.807-1.761-1.695-1.969-1.775-.44-3.84-.606-5.421.489-1.427.877-3.047-.056-4.453-.472-1.173-.123-2.357-.151-3.53-.317h0ZM5.6,8.144c2.057-.373,4.28-.831,6.277.049,2.839,1.173,5.228,3.16,7.662,4.988a30.034,30.034,0,0,1,4.942-3.745c.976-.49,2.135-1.057,3.238-.648.7.486,1.222,1.173,1.909,1.67.617.514,1.476.388,2.212.542.071,2.723-1.279,5.316-.994,8.046,1.064,2.061,3.576,3.033,4.4,5.274.3,1.089-.63,1.941-1.05,2.853-.609.951-.391,2.131-.69,3.174-1.74,1.018-3.8,1.342-5.566,2.321-1.744,1.166-2.709,3.1-4.182,4.537-.342.472-.87-.1-1.1-.391a23.53,23.53,0,0,1-3.8-13.263c.145-1.42-1.2-2.956-2.67-2.554A14.686,14.686,0,0,1,6.773,19.29,20.07,20.07,0,0,1,.7,13.333c-.56-.909-1.191-2.41-.106-3.181A12.315,12.315,0,0,1,5.6,8.144h0ZM21.132,26.885q.143-.729.275-1.458c.187-.349.9-.6.6-1.067-1.279.155-1.011,1.6-.877,2.526Zm26.35-2.339c.768.391.905,1.219,1.1,1.973.1-.55.454-1.2.049-1.7-.2-.468-.75-.229-1.145-.268h0ZM15.443.021c1.286,1.279,2.431,2.8,4.132,3.558A37.964,37.964,0,0,0,25.9,5.537c-1.3,1.839-2.389,3.96-4.277,5.273-.86.627-1.909,0-2.681-.479a8.561,8.561,0,0,1-3.463-4.315,17.138,17.138,0,0,1-.035-6ZM46.235,43.752c1.434,1.458.923,3.685.7,5.5-.666,3.526.134,7.109-.278,10.653a8.274,8.274,0,0,1-1.152,4.04c-.831,1.106-2.374.99-3.586,1.325-2.494.405-5,1.966-5.717,4.509-1.032,3.991-1.215,8.166-1.92,12.2A52.759,52.759,0,0,0,32.64,71.666c-.5-2.441-3.128-3.234-5.02-4.326-.507-3.156,2.254-5.756,1.867-8.93A4.256,4.256,0,0,0,23.8,57.2a11.786,11.786,0,0,1,.035-4.1c2.166.229,4.206,1.06,6.355,1.4a32,32,0,0,0,7.785.3c2.392-.2,5.133-.761,6.478-2.973a16.612,16.612,0,0,0,1.779-8.071ZM22.971,40.93c.817.535.246,1.62.5,2.4A32,32,0,0,0,24.961,49a3.385,3.385,0,0,0,2.019,1.744A20.806,20.806,0,0,0,34.5,51.787a13.225,13.225,0,0,0,5.816-.567,4.955,4.955,0,0,0,3.167-3.174,68.015,68.015,0,0,0,1.673-7.194c-.307,2.8-.352,5.633-.761,8.426a4.4,4.4,0,0,1-3.953,3.269,29.675,29.675,0,0,1-5.992-.254c-2.586-.225-5.228.567-7.768-.194a3.907,3.907,0,0,1-2.892-3.2c-.285-2.66-.465-5.333-.817-7.975Zm3.716-1.1c2.772-.979,5.414,1.149,8.187.557,2.064-.3,4.171-1,6.256-.507.969.208,1.37,1.187,1.853,1.934a4.283,4.283,0,0,0-4.488,6.563l.9.437a11.1,11.1,0,0,0,2.223-.852c.134-.067.395-.2.525-.261-.609,1.043-1.12,2.427-2.441,2.712a21.153,21.153,0,0,1-12.231-.342,21.3,21.3,0,0,1-1.42-2.8c.69.828,1.529,1.941,2.765,1.6a4.192,4.192,0,0,0,1.162-5.062c-1.018-1.673-3.2-1.744-4.939-1.945.289-.852.634-1.86,1.649-2.036Zm21.541-2.649c2.071-2.86,2.561-6.471,3.618-9.765a33.777,33.777,0,0,0,6.33,9.835,10.12,10.12,0,0,1,2.744,7.894c-.888,3.142-3.878,4.89-6.355,6.683a3.1,3.1,0,0,0-1.307,2.413c-.166,2.346.077,4.7-.1,7.042-.18,1.163-.666,2.6-1.99,2.825-1.532-4.315-2.889-8.976-2.033-13.58.356-2.124,1.807-3.977,1.772-6.172-.085-1.532-2.163-2.008-2.142-3.554.846-1.064,2.16-1.754,2.6-3.135-.169-.173-.5-.521-.669-.7a17.549,17.549,0,0,0-2.469.211ZM55.6,9.159c2.054-1.043,4.456-.81,6.661-.507A18.585,18.585,0,0,1,67.5,9.969a1.754,1.754,0,0,1,1.036,2.325,20.479,20.479,0,0,1-8.761,9.184,7.8,7.8,0,0,1-6.7.581c4.055-.771,8.152-2.4,10.847-5.664a10.062,10.062,0,0,0,2.233-4.252,21.438,21.438,0,0,0-5.309-2.015c-1.342-.342-2.92-.74-4.171.077-2.107,1.726-3.509,4.414-6.214,5.326-2.332.557-4.234-1.388-5.46-3.114,1.338.662,2.7,1.543,4.266,1.427C51.73,12.8,53.22,10.349,55.6,9.159ZM23.365,25.9c-.38.624-.092,1.578.747,1.434C24.841,26.772,24.274,25.265,23.365,25.9Zm22.112-.042c0,.461,0,.923.014,1.384l.94.081a2.254,2.254,0,0,0,0-1.564l-.951.1Zm3.66-22.105A15.261,15.261,0,0,0,53.544.01c.373,2.529.715,5.4-.789,7.641a8.4,8.4,0,0,1-4.238,3.385c-.708.236-1.3-.31-1.783-.74A23.264,23.264,0,0,1,43.17,5.559a31.106,31.106,0,0,0,5.967-1.811Z" transform="translate(-0.001 -0.01)" fill="#ff5c00" fill-rule="evenodd"/>
    </g>
  </g>
</svg>