<?xml version="1.0" encoding="utf-8"?>
<!-- Generator: Adobe Illustrator 19.0.0, SVG Export Plug-In . SVG Version: 6.00 Build 0)  -->
<svg version="1.1" id="Capa_1" xmlns="http://www.w3.org/2000/svg" xmlns:xlink="http://www.w3.org/1999/xlink" x="0px" y="0px"
	 viewBox="-49 70.7 512 629" style="enable-background:new -49 70.7 512 629;" xml:space="preserve">
<style type="text/css">
	.st0{fill:#FF5C00;}
</style>
<g>
	<g>
		<path class="st0" d="M444.6,430.2c-5.2-0.3-10.7-0.5-16.6-0.5c-11.1,0-24.4,0.6-39.8,2.1l-1.3-58c6,2.1,12.5,3.3,19.1,3.3
			c31.4,0,56.9-25.5,56.9-56.9c0-18.1-8.4-34.8-22.8-45.5c0.5-2.8,0.7-5.6,0.7-8.5c0-21.3-13.6-39.9-33.3-46.6
			c2.1-5.6,3.2-11.5,3.2-17.6c0-27.2-22.1-49.3-49.3-49.3s-49.3,22.1-49.3,49.3c0,0.5,0,1,0,1.5c-24.7,2.7-44,23.6-44,49
			c0,12.4,4.6,24.2,12.9,33.2c-11.2,10.7-17.6,25.4-17.6,41.1c0,31.4,25.5,56.9,56.9,56.9c6.7,0,13.3-1.2,19.4-3.4l-1.4,59.1
			c-30.7,6.1-66.6,15.8-107.6,30.8C146.9,501,80.2,538.8,48,558.5C25.8,572,6.9,585-6.9,596.1c-20.6,16.4-21.6,22-20.9,25.8
			c0.5,3,3,6.2,8.5,6.2h460.6c0.4,0,1.1,0.1,2,0.1c2.6,0,7.6-0.5,12-3.8c3.6-2.7,7.8-8,7.8-18.5V449.2
			C463,441.1,459.8,431.2,444.6,430.2z"/>
		<path class="st0" d="M206.4,442.7c3-1.1,5.2-4.1,5.5-7.4c0.3-2.8-0.9-5.3-3.1-6.7c-26.2-16.3-66.7-30.8-107.5-41l-1.1-48.9
			c4.1,1.2,8.4,1.9,12.8,1.9c24.2,0,43.9-19.7,43.9-43.9c0-13.7-6.3-26.3-16.9-34.6c0.3-1.9,0.4-3.8,0.4-5.7
			c0-16.1-10-30.1-24.5-35.7c1.3-3.9,2-8.1,2-12.3c0-21.1-17.2-38.3-38.3-38.3s-38.2,17.1-38.3,38.1c-18.5,2.6-32.9,18.6-32.9,37.9
			c0,9.2,3.3,17.9,9.1,24.8C9.7,279,5.1,290,5.1,301.7c0,24.2,19.7,43.9,43.9,43.9c4.5,0,8.9-0.7,13.1-2L61.3,379
			c-24-4.3-46.3-6.7-63.9-6.7c-30.8,0-46.4,7.1-46.4,21.1v173.1c0,6.8,4.1,9.8,8.2,9.8c3.2,0,5.7-1.8,6.6-2.6c2-1.6,3.8-3.1,5.6-4.6
			c14.9-11.9,35.1-25.7,58.4-40C61,510.1,125.1,473.7,206.4,442.7z"/>
	</g>
</g>
</svg>
