<?xml version="1.0" encoding="utf-8"?>
<!-- Generator: Adobe Illustrator 19.0.0, SVG Export Plug-In . SVG Version: 6.00 Build 0)  -->
<svg version="1.1" id="bold" xmlns="http://www.w3.org/2000/svg" xmlns:xlink="http://www.w3.org/1999/xlink" x="0px" y="0px"
	 viewBox="-102 141 405.3 512" style="enable-background:new -102 141 405.3 512;" xml:space="preserve">
<style type="text/css">
	.st0{fill:#FF5C00;}
</style>
<g>
	<path class="st0" d="M18.4,284.5c-9.6,0-17.3-7.8-17.3-17.3v-60.6c0-9.6,7.8-17.3,17.3-17.3s17.3,7.8,17.3,17.3v60.6
		C35.7,276.8,28,284.5,18.4,284.5z"/>
	<path class="st0" d="M100.6,284.5c-9.6,0-17.3-7.8-17.3-17.3v-60.6c0-9.6,7.8-17.3,17.3-17.3s17.3,7.8,17.3,17.3v60.6
		C117.9,276.8,110.1,284.5,100.6,284.5z"/>
	<path class="st0" d="M182.8,284.5c-9.6,0-17.3-7.8-17.3-17.3v-60.6c0-9.6,7.8-17.3,17.3-17.3c9.5,0,17.3,7.8,17.3,17.3v60.6
		C200.1,276.8,192.3,284.5,182.8,284.5z"/>
	<path class="st0" d="M217.3,228.3H-16.2c-26.2,0-47.5,21.3-47.5,47.6V557c0,26.3,21.3,47.6,47.6,47.6h233.5
		c26.3,0,47.6-21.3,47.6-47.6V275.9C264.9,249.6,243.6,228.3,217.3,228.3z M22.7,327.8h86.5c9.6,0,17.3,7.8,17.3,17.3
		s-7.8,17.3-17.3,17.3H22.7c-9.6,0-17.3-7.8-17.3-17.3S13.2,327.8,22.7,327.8z M195.8,500.7h-173c-9.6,0-17.3-7.8-17.3-17.3
		s7.8-17.3,17.3-17.3h172.9c9.6,0,17.3,7.8,17.3,17.3C212.9,493,205.2,500.7,195.8,500.7z M195.8,431.6h-173
		c-9.6,0-17.3-7.8-17.3-17.3c0-9.5,7.8-17.3,17.3-17.3h172.9c9.6,0,17.3,7.8,17.3,17.3C212.9,423.8,205.2,431.6,195.8,431.6z"/>
</g>
</svg>
