<?xml version="1.0" encoding="utf-8"?>
<!-- Generator: Adobe Illustrator 19.0.0, SVG Export Plug-In . SVG Version: 6.00 Build 0)  -->
<svg version="1.1" id="Layer_1" xmlns="http://www.w3.org/2000/svg" xmlns:xlink="http://www.w3.org/1999/xlink" x="0px" y="0px"
	 viewBox="-271 364 67.1 67" style="enable-background:new -271 364 67.1 67;" xml:space="preserve">
<style type="text/css">
	.st0{fill:#FF5C00;}
</style>
<path class="st0" d="M-262.8,383.1l-6.7,3c-0.9,0.4-1.4,1.3-1.4,2.2c0,1,0.6,1.8,1.4,2.2l5,2.2l0,0l11.5-5.2L-262.8,383.1z"/>
<path class="st0" d="M-248.4,389.8l-11.4,5.1l6,2.7l11.2-5.2L-248.4,389.8z"/>
<path class="st0" d="M-238,394.6l-11.1,5.1l10.1,4.5c0.3,0.1,0.7,0.2,1,0.2c0.3,0,0.7-0.1,1-0.2l10.1-4.6L-238,394.6z"/>
<path class="st0" d="M-242.7,383l-5.6,2.5l-9.8-4.5l5.5-2.5L-242.7,383z"/>
<path class="st0" d="M-232.3,387.7l-5.7,2.6l-5.7-2.6l5.7-2.6h0L-232.3,387.7z"/>
<path class="st0" d="M-227.6,389.8l-5.8,2.7l11.1,5.1l6-2.7L-227.6,389.8z"/>
<path class="st0" d="M-228.1,376.5l-9.9,4.5l-10-4.5l8.9-4c0.6-0.3,1.4-0.3,2,0L-228.1,376.5z"/>
<path class="st0" d="M-217.9,381l-9.8,4.5l-5.6-2.5l9.9-4.5L-217.9,381z"/>
<path class="st0" d="M-205.1,388.3c0,1-0.6,1.8-1.4,2.2l-5,2.3h0l-11.4-5.1l9.8-4.5l6.7,3C-205.6,386.5-205.1,387.4-205.1,388.3z"/>
<path class="st0" d="M-206.5,395.1l-0.7-0.3l-29.8,13.4c-0.3,0.1-0.7,0.2-1,0.2c-0.3,0-0.7-0.1-1-0.2l-29.8-13.4l-0.8,0.3
	c-0.9,0.4-1.4,1.3-1.4,2.2c0,1,0.6,1.8,1.4,2.2l30.5,13.7c0.3,0.1,0.7,0.2,1,0.2c0.3,0,0.7-0.1,1-0.2l30.5-13.7
	c0.9-0.4,1.4-1.3,1.4-2.2C-205.1,396.3-205.6,395.4-206.5,395.1z"/>
<path class="st0" d="M-206.5,404.1l-0.8-0.3l-29.7,13.3c-0.3,0.1-0.7,0.2-1,0.2c-0.3,0-0.7-0.1-1-0.2l-29.8-13.4l-0.8,0.4
	c-0.9,0.4-1.4,1.3-1.4,2.2c0,1,0.6,1.8,1.4,2.2l30.5,13.7c0.3,0.1,0.7,0.2,1,0.2c0.3,0,0.7-0.1,1-0.2l30.5-13.7
	c0.9-0.4,1.4-1.3,1.4-2.2C-205.1,405.4-205.6,404.5-206.5,404.1z"/>
</svg>
