<?xml version="1.0" encoding="utf-8"?>
<!-- Generator: Adobe Illustrator 19.0.0, SVG Export Plug-In . SVG Version: 6.00 Build 0)  -->
<svg version="1.1" id="Capa_1" xmlns="http://www.w3.org/2000/svg" xmlns:xlink="http://www.w3.org/1999/xlink" x="0px" y="0px"
	 viewBox="-49 141 512 512" style="enable-background:new -49 141 512 512;" xml:space="preserve">
<style type="text/css">
	.st0{fill:#FF5C00;}
</style>
<g>
	<path class="st0" d="M398,181h-46v-24c0-8.8-7.2-16-16-16s-16,7.2-16,16v24H96v-24c0-8.8-7.2-16-16-16s-16,7.2-16,16v24H18
		c-36.4,0-66,29.6-66,66v340c0,36.4,29.6,66,66,66h380c36.4,0,66-29.6,66-66V247C464,210.6,434.4,181,398,181z M432,587
		c0,18.8-15.2,34-34,34H18c-18.8,0-34-15.2-34-34V322c0-2.8,2.2-5,5-5h438c2.8,0,5,2.2,5,5V587z"/>
</g>
<g>
	<path class="st0" d="M267.1,361.8h-1.1c-5.9,0-11.1,3.5-13.3,9c-1,2.5-3.4,4.1-6.1,4.1s-5.1-1.6-6.1-4.1c-2.2-5.5-7.4-9-13.3-9
		h-0.6c-5.9,0-11.1,3.5-13.3,9c-1,2.5-3.4,4.1-6.1,4.1c-2.7,0-5.1-1.6-6.1-4.1c-2.2-5.5-7.4-9-13.3-9h-0.6c-5.9,0-11.1,3.5-13.3,9
		c-1,2.5-3.4,4.1-6.1,4.1s-5.1-1.6-6.1-4.1c-2.2-5.5-7.4-9-13.3-9h-1.1c-10.4,0-18.9,8.5-18.9,18.9v172.8c0,10.4,8.5,18.9,18.9,18.9
		h1.1c5.9,0,11.1-3.5,13.3-9c1-2.5,3.4-4.1,6.1-4.1s5.1,1.6,6.1,4.1c2.2,5.5,7.4,9,13.3,9h0.6c5.9,0,11.1-3.5,13.3-9
		c1-2.5,3.4-4.1,6.1-4.1c2.7,0,5.1,1.6,6.1,4.1c2.2,5.5,7.4,9,13.3,9h0.6c5.9,0,11.1-3.5,13.3-9c1-2.5,3.4-4.1,6.1-4.1
		c2.7,0,5.1,1.6,6.1,4.1c2.2,5.5,7.4,9,13.3,9h1.1c10.4,0,18.9-8.5,18.9-18.9V380.8C286,370.3,277.5,361.8,267.1,361.8L267.1,361.8z
		 M207.1,460.6c14.5,0.1,26.2,11.9,26.2,26.3c0,11.7-7.7,21.7-18.3,25.1c-0.9,0.3-1.4,1.1-1.4,2v5.7c0,3.5-2.7,6.6-6.3,6.8
		c-3.8,0.2-6.9-2.8-6.9-6.6V514c0-0.9-0.6-1.7-1.5-2c-10.5-3.4-18.2-13.2-18.3-24.8c0-3.6,2.8-6.8,6.4-6.9c3.7-0.1,6.8,2.9,6.8,6.6
		c0,7.6,6.4,13.7,14.1,13.1c6.5-0.5,11.7-5.7,12.2-12.2c0.5-7.7-5.6-14.1-13.1-14.1c-14.5,0-26.3-11.8-26.3-26.3
		c0-11.7,7.7-21.7,18.3-25.1c0.9-0.3,1.4-1.1,1.4-2v-5.7c0-3.5,2.7-6.6,6.3-6.8c3.8-0.2,6.9,2.8,6.9,6.6v5.9c0,0.9,0.6,1.7,1.5,2
		c10.5,3.4,18.2,13.2,18.3,24.8c0,3.6-2.8,6.8-6.4,6.9c-3.7,0.1-6.8-2.9-6.8-6.6c0-7.3-5.9-13.2-13.2-13.2c-7.3,0-13.2,6-13.2,13.3
		C193.9,454.8,199.9,460.5,207.1,460.6L207.1,460.6z"/>
</g>
</svg>
