<?xml version="1.0" encoding="utf-8"?>
<!-- Generator: Adobe Illustrator 19.0.0, SVG Export Plug-In . SVG Version: 6.00 Build 0)  -->
<svg version="1.1" id="Capa_1" xmlns="http://www.w3.org/2000/svg" xmlns:xlink="http://www.w3.org/1999/xlink" x="0px" y="0px"
	 viewBox="-49 141 512 512" style="enable-background:new -49 141 512 512;" xml:space="preserve">
<style type="text/css">
	.st0{fill:#FF5C00;}
</style>
<g>
	<g>
		<g>
			<path class="st0" d="M207,141C65.6,141-49,255.6-49,397S65.6,653,207,653s256-114.6,256-256C462.9,255.7,348.3,141.1,207,141z
				 M188.7,378.7h36.5c40.4,0,73.2,32.8,73.2,73.2v18.3c0,40.4-32.8,73.2-73.2,73.2v18.3c0,10.1-8.1,18.3-18.3,18.3
				c-10.1,0-18.3-8.1-18.3-18.3v-18.3c-40.4,0-73.2-32.8-73.2-73.2c0-10.1,8.1-18.3,18.3-18.3c10.1,0,18.3,8.1,18.3,18.3
				c0,20.3,16.4,36.5,36.5,36.5h36.5c20.3,0,36.5-16.4,36.5-36.5v-18.3c0-20.3-16.4-36.5-36.5-36.5h-36.5
				c-40.4,0-73.2-32.8-73.2-73.2v-18.3c0-40.4,32.8-73.2,73.2-73.2v-18.3c0-10.1,8.1-18.3,18.3-18.3c10.1,0,18.3,8.1,18.3,18.3v18.3
				c40.4,0,73.2,32.8,73.2,73.2c0,10.1-8.1,18.3-18.3,18.3c-10.1,0-18.3-8.1-18.3-18.3c0-20.3-16.4-36.5-36.5-36.5h-36.5
				c-20.3,0-36.5,16.4-36.5,36.5v18.3C152.1,362.4,168.5,378.7,188.7,378.7z"/>
		</g>
	</g>
</g>
</svg>
