<?xml version="1.0" encoding="utf-8"?>
<!-- Generator: Adobe Illustrator 19.0.0, SVG Export Plug-In . SVG Version: 6.00 Build 0)  -->
<svg version="1.1" id="Capa_1" xmlns="http://www.w3.org/2000/svg" xmlns:xlink="http://www.w3.org/1999/xlink" x="0px" y="0px"
	 viewBox="-49 141 512 512" style="enable-background:new -49 141 512 512;" xml:space="preserve">
<style type="text/css">
	.st0{fill:#FF5C00;}
</style>
<g>
	<g>
		<path class="st0" d="M208,141C66.4,141-48,255.4-48,397c0,141.6,114.4,256,256,256c141.6,0,256-114.4,256-256
			C464,255.4,349.6,141,208,141z M208,593C99.9,593,12,505.1,12,397s87.9-196,196-196s196,87.9,196,196S316.1,593,208,593z"/>
		<path class="st0" d="M208,231c-91.5,0-166,74.5-166,166s74.5,166,166,166s166-74.5,166-166S299.5,231,208,231z M208,382
			c8.3,0,15,6.7,15,15s-6.7,15-15,15h-45v2.6c0,20.4-5.2,40.1-14.9,57.4H268c8.3,0,15,6.7,15,15s-6.7,15-15,15H118
			c-13.4,0-20-16.2-10.6-25.6c16.5-16.5,25.6-38.5,25.6-61.8V412h-15c-8.3,0-15-6.7-15-15s6.7-15,15-15h15v-45c0-41.4,33.6-75,75-75
			s75,33.6,75,75c0,8.3-6.7,15-15,15s-15-6.7-15-15c0-24.8-20.2-45-45-45s-45,20.2-45,45v45H208z"/>
	</g>
</g>
</svg>
