<?xml version="1.0" encoding="utf-8"?>
<!-- Generator: Adobe Illustrator 19.0.0, SVG Export Plug-In . SVG Version: 6.00 Build 0)  -->
<svg version="1.1" id="Capa_1" xmlns="http://www.w3.org/2000/svg" xmlns:xlink="http://www.w3.org/1999/xlink" x="0px" y="0px"
	 viewBox="-49 141 512 512" style="enable-background:new -49 141 512 512;" xml:space="preserve">
<style type="text/css">
	.st0{fill:#FF5C00;}
</style>
<rect x="-63.2" y="525" transform="matrix(-0.109 0.994 -0.994 -0.109 561.7543 604.7281)" class="st0" width="146.1" height="58.2"/>
<path class="st0" d="M276.4,407l9,0.4v47.1h15.5v-47.1l8.5-0.4c56.5-1.9,103.5-48.9,104.8-104.9l0.5-14c0.2-4.3-3.2-7.9-7.5-8
	c-0.2,0-0.4,0-0.6,0l-13.8,0.6c-39.2,1.3-74.2,24.9-91.9,58.1v-27.7l7.1-7.9c38.6-41.3,38.5-107.8-0.1-148.3l-9.6-10.3
	c-2.9-3.2-7.8-3.3-11-0.4c-0.1,0.1-0.3,0.3-0.4,0.4l-9.5,10.3c-38.2,40.9-38,107.4,0.2,148.3l7.9,8.3v27.4
	c-18.8-33.2-53-56.8-92.3-58.1l-14.2-0.6c-2.2-0.1-4.3,0.7-5.8,2.3c-1.5,1.5-2.4,3.6-2.3,5.8l0.7,14
	C172.8,358.1,220,405.1,276.4,407z"/>
<path class="st0" d="M406.4,547.7l-0.2,0.1l-78.3,29.5c0.5,4.3,0.5,8.6,0.1,12.9c-0.5,4.2-4.3,7.3-8.5,6.8c0,0,0,0,0,0l-109.7-12
	c-4.2-0.4-7.3-4.2-6.9-8.5c0.4-4.2,4.2-7.3,8.5-6.9c0,0,0.1,0,0.1,0l101.3,11.1c-1.6-20.3-17.3-36.5-37.5-38.8l-66.7-7.3
	c-12.6-1.4-24.7-5.5-35.5-12c-0.1-0.1-0.2-0.1-0.3-0.2c-0.4-0.2-0.8-0.5-1.1-0.7l-6.5-4.1c-32.2-20.3-72.9-21.3-106-2.6l-10.8,98
	l12.6-5.5c11.8-5.2,25.2-5.5,37.3-1l110.9,41.2c21.6,6.3,44.7,5.6,65.9-2L441,556.7C432.7,546.4,418.7,542.7,406.4,547.7z"/>
<path class="st0" d="M359.4,489.2c-9.4-2-19.1-6.6-29.5-11.5c-13.6-6.4-29-13.7-45.6-15.7c-19.4-2.4-38,3.2-56,8.6
	c-8.3,2.5-16.8,5.1-25.3,6.8c-10.3,2.1-16,21.6-17.8,34.3c7.8,4,16.3,6.5,25,7.5l66.7,7.3c21,2.3,39.1,16,47.1,35.6l76.2-28.6
	c-0.3-4.1-2.4-9.3-5.9-14.9C385.6,504.6,369.9,491.5,359.4,489.2z"/>
</svg>
