<?xml version="1.0"?>
<svg xmlns="http://www.w3.org/2000/svg" xmlns:xlink="http://www.w3.org/1999/xlink" version="1.1" id="Capa_1" x="0px" y="0px" viewBox="0 0 512 512" style="enable-background:new 0 0 512 512;" xml:space="preserve" width="512px" height="512px"><g><g>
	<g>
		<path d="M343.643,15.401c-16.576,10.954-25.954,22.044-27.867,33.003c-3.091,17.708,13.062,37.986,27.312,55.878    c8.121,10.194,15.791,19.824,20.605,29.497c4.871,9.785,8.733,24.256-0.531,37.62c-6.701,9.666-17.809,14.425-32.947,14.12    c-10.48-0.205-22.396-2.651-35.012-5.241c-18.313-3.76-39.068-8.018-56.906-5.453c-18.589,2.675-31.511,12.544-40.669,31.056    c-20.761,41.974-2.53,55.255,25.066,75.355c17.376,12.658,35.345,25.747,40.951,47.741c2.462,9.658,4.547,19.496,6.563,29.009    c4.454,21.016,8.66,40.865,15.952,54.621c6.694,12.633,14.507,17.786,26.963,17.786c39.027,0,60.917-55.874,61.636-157.33    c0.196-27.697,6.62-46.99,19.637-58.98c18.463-17.007,44.756-15.031,70.174-13.123c14.073,1.057,28.511,2.128,41.504,0.117    C487.251,114.981,425.118,45.087,343.643,15.401z" data-original="#000000" class="active-path" data-old_color="#000000" fill="#FF5C00"/>
	</g>
</g><g>
	<g>
		<path d="M510.76,230.744c-16.452,2.556-33.213,1.302-48.439,0.159c-20.769-1.56-38.708-2.908-47.58,5.266    c-6.473,5.963-9.822,18.446-9.953,37.107c-0.44,62.115-8.646,109.377-24.388,140.474c-19.526,38.574-47.362,46.671-67.276,46.671    c-23.626,0-41.625-11.356-53.494-33.752c-9.262-17.474-13.893-39.325-18.795-62.457c-1.954-9.219-3.975-18.752-6.285-27.818    c-2.935-11.511-15.855-20.922-29.535-30.886c-14.355-10.457-30.628-22.31-39.554-39.907c-10.518-20.735-8.799-44.625,5.252-73.033    c13.553-27.401,34.852-43.37,63.307-47.465c23.015-3.311,46.502,1.507,67.221,5.76c11.229,2.305,21.835,4.482,29.562,4.633    c5.498,0.108,7.44-0.858,7.68-1.205c2.816-4.061-11.3-21.781-18.883-31.301c-17.295-21.713-38.819-48.737-33.406-79.75    c2.386-13.67,9.592-26.219,21.848-37.941C291.238,1.829,273.833,0,256,0c-57.67,0-110.882,19.075-153.682,51.252    c20.43,29.04,28.249,55.284,23.858,79.931c-4.386,24.615-19.769,43.376-34.645,61.52C75.31,212.485,59.989,231.171,59.989,256    c0,29.801,6.938,51.665,13.059,70.956c9.703,30.581,18.899,59.57-6.325,101.408C113.544,479.75,181.005,512,256,512    c141.385,0,256-114.615,256-256C512,247.477,511.574,239.054,510.76,230.744z" data-original="#000000" class="active-path" data-old_color="#000000" fill="#FF5C00"/>
	</g>
</g><g>
	<g>
		<path d="M79.329,70.736C30.453,117.358,0,183.123,0,256c0,54.687,17.159,105.36,46.37,146.954    c11.514-24.444,6.109-41.538-1.944-66.917c-6.445-20.31-14.464-45.587-14.464-80.038c0-35.566,20.373-60.413,38.349-82.337    C93.845,142.522,112.78,119.409,79.329,70.736z" data-original="#000000" class="active-path" data-old_color="#000000" fill="#FF5C00"/>
	</g>
</g></g> </svg>
