<?xml version="1.0" encoding="utf-8"?>
<!-- Generator: Adobe Illustrator 19.0.0, SVG Export Plug-In . SVG Version: 6.00 Build 0)  -->
<svg version="1.1" id="Capa_1" xmlns="http://www.w3.org/2000/svg" xmlns:xlink="http://www.w3.org/1999/xlink" x="0px" y="0px"
	 viewBox="-49 103 512 496" style="enable-background:new -49 103 512 496;" xml:space="preserve">
<style type="text/css">
	.st0{fill:#FF5C00;}
</style>
<g>
	<g>
		<g>
			<path class="st0" d="M442.1,150H-28.1c-11.3,0-20.9,9.5-20.9,20.9v362.2c0,11.3,9.5,20.9,20.9,20.9h470.2
				c11.3,0,20.9-9.5,20.9-20.9V170.9C463,159,454,150,442.1,150z M421.2,400l-85.3-68c-7.8-6-19.1-6-26.9,0.6l-96,83.5L85.9,272.9
				c-4.2-4.2-10.1-7.2-16.1-7.2s-11.3,2.4-15.5,6.6l-61.5,66.8V191.8h428.5L421.2,400L421.2,400z"/>
		</g>
	</g>
	<g>
		<g>
			<path class="st0" d="M207,204.3c-37.6,0-68.6,31-68.6,68.6s30.4,68.6,68.6,68.6s68.6-31,68.6-68.6
				C275.6,234.7,244.6,204.3,207,204.3z"/>
		</g>
	</g>
</g>
</svg>
