<?xml version="1.0"?>
<svg xmlns="http://www.w3.org/2000/svg" id="Capa_1" enable-background="new 0 0 512 512" height="512px" viewBox="0 0 512 512" width="512px"><g><g><path d="m221 310.152 94.767-54.152-94.767-54.152z" data-original="#000000" class="active-path" data-old_color="#000000" fill="#FF5C00"/><path d="m496 0h-480c-8.284 0-15 6.716-15 15v482c0 8.284 6.716 15 15 15h480c8.284 0 15-6.716 15-15v-482c0-8.284-6.716-15-15-15zm-415 482h-50v-50h50zm0-402h-50v-50h50zm80 402h-50v-50h50zm0-402h-50v-50h50zm110-50h50v50h-50zm-80 0h50v50h-50zm50 452h-50v-50h50zm80 0h-50v-50h50zm-107.558-132.977c-2.306 1.318-4.875 1.977-7.442 1.977-2.601 0-5.201-.676-7.529-2.026-4.625-2.684-7.471-7.627-7.471-12.974v-160c0-5.347 2.846-10.29 7.471-12.974s10.329-2.703 14.971-.05l140 80c4.674 2.67 7.558 7.641 7.558 13.023s-2.884 10.353-7.558 13.023zm187.558 132.977h-50v-50h50zm0-402h-50v-50h50zm80 402h-50v-50h50zm0-402h-50v-50h50z" data-original="#000000" class="active-path" data-old_color="#000000" fill="#FF5C00"/></g></g> </svg>
