<?xml version="1.0"?>
<svg xmlns="http://www.w3.org/2000/svg" height="512px" viewBox="0 0 512 512" width="512px"><g><path d="m376 120h-16.074219c-1.199219-8.34375-3.382812-16.375-6.429687-23.96875l13.925781-8.042969c7.175781-4.140625 9.632813-13.3125 5.492187-20.488281-4.144531-7.175781-13.316406-9.632812-20.492187-5.488281l-13.960937 8.058593c-5.136719-6.507812-11.023438-12.394531-17.53125-17.53125l8.058593-13.960937c4.144531-7.175781 1.6875-16.347656-5.488281-20.488281-7.175781-4.144532-16.347656-1.6875-20.488281 5.488281l-8.042969 13.925781c-7.59375-3.046875-15.625-5.230468-23.96875-6.425781v-16.078125c0-8.285156-6.714844-15-15-15s-15 6.714844-15 15v16.074219c-8.34375 1.199219-16.375 3.382812-23.96875 6.429687l-8.042969-13.929687c-4.140625-7.171875-13.3125-9.628907-20.488281-5.488281-7.175781 4.140624-9.632812 13.316406-5.488281 20.488281l8.058593 13.964843c-6.507812 5.136719-12.394531 11.023438-17.53125 17.53125l-13.960937-8.0625c-7.175781-4.144531-16.351563-1.683593-20.492187 5.492188-4.140626 7.171875-1.683594 16.347656 5.492187 20.488281l13.925781 8.039063c-3.050781 7.597656-5.230468 15.628906-6.429687 23.972656h-16.074219c-8.285156 0-15 6.714844-15 15 0 8.28125 6.714844 15 15 15h16.074219c1.199219 8.34375 3.382812 16.375 6.429687 23.96875l-13.925781 8.039062c-7.175781 4.144532-9.632813 13.316407-5.492187 20.492188 2.777343 4.8125 7.820312 7.5 13.003906 7.5 2.546875 0 5.125-.648438 7.488281-2.011719l13.960937-8.058593c5.136719 6.507812 11.023438 12.394531 17.53125 17.53125l-8.058593 13.960937c-4.144531 7.175781-1.6875 16.347656 5.488281 20.488281 2.363281 1.367188 4.941406 2.015625 7.484375 2.015625 5.1875 0 10.226563-2.691406 13.003906-7.503906l8.042969-13.925781c7.59375 3.046875 15.625 5.230468 23.96875 6.425781v16.078125c0 8.285156 6.714844 15 15 15s15-6.714844 15-15v-16.074219c8.34375-1.199219 16.375-3.382812 23.96875-6.429687l8.042969 13.925781c2.777343 4.8125 7.816406 7.503906 13.003906 7.503906 2.542969 0 5.125-.648437 7.484375-2.011719 7.175781-4.144531 9.632812-13.316406 5.488281-20.492187l-8.058593-13.960937c6.507812-5.136719 12.394531-11.023438 17.53125-17.53125l13.960937 8.058593c2.363281 1.367188 4.941406 2.015625 7.488281 2.015625 5.183594 0 10.226563-2.691406 13.003906-7.503906 4.140626-7.175781 1.683594-16.347656-5.492187-20.488281l-13.925781-8.042969c3.050781-7.59375 5.230468-15.625 6.429687-23.96875h16.074219c8.285156 0 15-6.714844 15-15s-6.714844-15-15-15zm0 0" data-original="#000000" class="active-path" data-old_color="#000000" fill="#FF5C00"/><path d="m436 497v15h61c8.285156 0 15-6.714844 15-15v-30h-46c-16.542969 0-30 13.457031-30 30zm0 0" data-original="#000000" class="active-path" data-old_color="#000000" fill="#FF5C00"/><path d="m361 497v15h45v-15c0-33.085938 26.914062-60 60-60h46v-45h-46c-57.898438 0-105 47.101562-105 105zm0 0" data-original="#000000" class="active-path" data-old_color="#000000" fill="#FF5C00"/><path d="m286 497v15h45v-15c0-74.4375 60.5625-135 135-135h46v-45h-46c-99.253906 0-180 80.746094-180 180zm0 0" data-original="#000000" class="active-path" data-old_color="#000000" fill="#FF5C00"/><path d="m497 242h-31c-68.113281 0-132.148438 26.523438-180.3125 74.6875s-74.6875 112.199219-74.6875 180.3125c0 8.285156 6.714844 15 15 15h30v-15c0-115.792969 94.207031-210 210-210h46v-30c0-8.285156-6.714844-15-15-15zm0 0" data-original="#000000" class="active-path" data-old_color="#000000" fill="#FF5C00"/><path d="m76 497v15h-61c-8.285156 0-15-6.714844-15-15v-30h46c16.542969 0 30 13.457031 30 30zm0 0" data-original="#000000" class="active-path" data-old_color="#000000" fill="#FF5C00"/><path d="m151 497v15h-45v-15c0-33.085938-26.914062-60-60-60h-46v-45h46c57.898438 0 105 47.101562 105 105zm0 0" data-original="#000000" class="active-path" data-old_color="#000000" fill="#FF5C00"/><path d="m46 317h-46v45h46c74.4375 0 135 60.5625 135 135 0-33.492188 5.742188-66.101562 16.753906-96.703125-32.003906-50.050781-88.066406-83.296875-151.753906-83.296875zm0 0" data-original="#000000" class="active-path" data-old_color="#000000" fill="#FF5C00"/><path d="m226.3125 316.6875c-48.164062-48.164062-112.199219-74.6875-180.3125-74.6875h-31c-8.285156 0-15 6.714844-15 15v30h46c67.246094 0 127.207031 31.777344 165.667969 81.097656 7.152343-14.078125 15.5-27.589844 25.003906-40.40625-3.335937-3.75-6.78125-7.425781-10.359375-11.003906zm0 0" data-original="#000000" class="active-path" data-old_color="#000000" fill="#FF5C00"/></g> </svg>
