<?xml version="1.0" encoding="utf-8"?>
<!-- Generator: Adobe Illustrator 17.0.0, SVG Export Plug-In . SVG Version: 6.00 Build 0)  -->
<!DOCTYPE svg PUBLIC "-//W3C//DTD SVG 1.1//EN" "http://www.w3.org/Graphics/SVG/1.1/DTD/svg11.dtd">
<svg version="1.1" id="Capa_1" xmlns="http://www.w3.org/2000/svg" xmlns:xlink="http://www.w3.org/1999/xlink" x="0px" y="0px"
	 width="512px" height="512px" viewBox="0 0 512 512" enable-background="new 0 0 512 512" xml:space="preserve">
<g>
	<g>
		<g>
			<polygon fill="#FF5C00" points="320,0 320,128 448,128 			"/>
		</g>
	</g>
	<g>
		<g>
			<path fill="#FF5C00" d="M320,160c-17.632,0-32-14.368-32-32V0H96C78.368,0,64,14.368,64,32v448c0,17.664,14.368,32,32,32h320
				c17.664,0,32-14.336,32-32V160H320z M192,448h-64v-96h64V448z M288,448h-64V288h64V448z M384,448h-64V224h64V448z"/>
		</g>
	</g>
</g>
</svg>
