<?xml version="1.0" encoding="utf-8"?>
<!-- Generator: Adobe Illustrator 19.0.0, SVG Export Plug-In . SVG Version: 6.00 Build 0)  -->
<svg version="1.1" id="Layer_1" xmlns="http://www.w3.org/2000/svg" xmlns:xlink="http://www.w3.org/1999/xlink" x="0px" y="0px"
	 viewBox="-41 203.9 512 434.1" style="enable-background:new -41 203.9 512 434.1;" xml:space="preserve">
<style type="text/css">
	.st0{fill:#FF5C00;}
</style>
<g>
	<g>
		<g>
			<path class="st0" d="M215,304c-9.2,0-16.7,7.5-16.7,16.7s7.5,16.7,16.7,16.7c9.2,0,16.7-7.5,16.7-16.7
				C231.7,311.5,224.2,304,215,304z"/>
		</g>
	</g>
	<g>
		<g>
			<path class="st0" d="M215,203.9c-64.4,0-116.9,52.4-116.9,116.9c0,22.6,6.4,44.4,18.6,63.3l85,131.7c3.1,4.8,8.6,7.2,14.3,7.2
				c0,0,0.1,0,0.1,0c5.7,0,11.3-3.4,14.3-8.2l83.3-131.5c11.8-18.7,18.1-40.3,18.1-62.5C331.9,256.3,279.4,203.9,215,203.9z
				 M215,370.8c-27.6,0-50.1-22.5-50.1-50.1s22.5-50.1,50.1-50.1s50.1,22.5,50.1,50.1C265.1,348.3,242.6,370.8,215,370.8z"/>
		</g>
	</g>
	<g>
		<g>
			<path class="st0" d="M470.1,615.9l-66.8-200.3c-2.3-6.8-8.7-11.4-15.8-11.4H340l-81.3,128.4c-9.3,14.6-25.5,23.7-42.4,23.7h-0.1
				h-0.2c-17.4,0-33.3-8.4-42.4-22.4L90,404.2H42.5c-7.2,0-13.6,4.6-15.8,11.4l-66.8,200.3c-3.6,10.8,4.5,22,15.8,22h478.6
				C465.7,637.9,473.7,626.8,470.1,615.9z"/>
		</g>
	</g>
</g>
</svg>
