<?xml version="1.0" encoding="utf-8"?>
<!-- Generator: Adobe Illustrator 19.0.0, SVG Export Plug-In . SVG Version: 6.00 Build 0)  -->
<svg version="1.1" id="color" xmlns="http://www.w3.org/2000/svg" xmlns:xlink="http://www.w3.org/1999/xlink" x="0px" y="0px"
	 viewBox="-41 164.9 512 512" style="enable-background:new -41 164.9 512 512;" xml:space="preserve">
<style type="text/css">
	.st0{fill:#DDDDDD;}
	.st1{fill:#FFFFFF;}
	.st2{fill:#FF5C00;}
	.st3{fill:#4F4F4F;}
</style>
<g>
	<path class="st0" d="M412.3,164.9H17.7c-32.4,0-58.7,26.3-58.7,58.7v394.7c0,32.4,26.3,58.7,58.7,58.7h394.7
		c32.4,0,58.7-26.3,58.7-58.7V223.6C471,191.2,444.7,164.9,412.3,164.9z"/>
	<path class="st1" d="M172.3,575.6c0,20.6-16.7,37.3-37.3,37.3H60.3c-20.6,0-37.3-16.7-37.3-37.3v-74.7c0-20.6,16.7-37.3,37.3-37.3
		H135c20.6,0,37.3,16.7,37.3,37.3V575.6z"/>
	<path class="st1" d="M172.3,357.9c0,20.6-16.7,37.3-37.3,37.3H60.3c-20.6,0-37.3-16.7-37.3-37.3v-74.7c0-20.6,16.7-37.3,37.3-37.3
		H135c20.6,0,37.3,16.7,37.3,37.3V357.9z"/>
	<path class="st2" d="M189.9,271.2L90.8,388.5c-3.1,3.6-7.5,5.7-12.2,5.7s-9.2-2.1-12.2-5.7l-39.6-46.9c-5.7-6.7-4.9-16.8,1.9-22.5
		c6.7-5.7,16.8-4.8,22.5,1.9l27.4,32.4l86.8-102.8c5.7-6.8,15.8-7.6,22.5-1.9C194.8,254.4,195.6,264.5,189.9,271.2L189.9,271.2z"/>
	<g>
		<path class="st3" d="M391,602.2H252.3c-8.8,0-16-7.2-16-16c0-8.8,7.2-16,16-16H391c8.8,0,16,7.2,16,16
			C407,595.1,399.8,602.2,391,602.2z"/>
		<path class="st3" d="M391,516.9H252.3c-8.8,0-16-7.2-16-16s7.2-16,16-16H391c8.8,0,16,7.2,16,16S399.8,516.9,391,516.9z"/>
		<path class="st3" d="M391,388.9H252.3c-8.8,0-16-7.2-16-16c0-8.8,7.2-16,16-16H391c8.8,0,16,7.2,16,16
			C407,381.7,399.8,388.9,391,388.9z"/>
		<path class="st3" d="M391,303.6H252.3c-8.8,0-16-7.2-16-16s7.2-16,16-16H391c8.8,0,16,7.2,16,16S399.8,303.6,391,303.6z"/>
	</g>
</g>
</svg>
