<?xml version="1.0" encoding="utf-8"?>
<!-- Generator: Adobe Illustrator 19.0.0, SVG Export Plug-In . SVG Version: 6.00 Build 0)  -->
<svg version="1.1" id="Capa_1" xmlns="http://www.w3.org/2000/svg" xmlns:xlink="http://www.w3.org/1999/xlink" x="0px" y="0px"
	 viewBox="-41 229.2 512 383.5" style="enable-background:new -41 229.2 512 383.5;" xml:space="preserve">
<style type="text/css">
	.st0{fill:#FF5C00;}
</style>
<g>
	<path class="st0" d="M189.9,418.3c13.4,8.9,36.8,8.9,50.2,0c0,0,0,0,0,0L468,266.3c-7.5-21.6-28-37.2-52.1-37.2H14.2
		c-24.1,0-44.7,15.6-52.1,37.2L189.9,418.3C189.9,418.3,189.9,418.3,189.9,418.3L189.9,418.3z"/>
	<path class="st0" d="M256.7,443.2C256.7,443.2,256.7,443.2,256.7,443.2C245,451,230,454.9,215,454.9c-15,0-30-3.9-41.7-11.7
		c0,0,0,0,0,0L-41,300.4v257.1c0,30.4,24.7,55.2,55.2,55.2h401.7c30.4,0,55.2-24.7,55.2-55.2V300.4L256.7,443.2z"/>
</g>
</svg>
