<?xml version="1.0" encoding="utf-8"?>
<!-- Generator: Adobe Illustrator 19.0.0, SVG Export Plug-In . SVG Version: 6.00 Build 0)  -->
<svg version="1.1" id="Layer_1" xmlns="http://www.w3.org/2000/svg" xmlns:xlink="http://www.w3.org/1999/xlink" x="0px" y="0px"
	 viewBox="1.7 164.9 426.7 512" style="enable-background:new 1.7 164.9 426.7 512;" xml:space="preserve">
<style type="text/css">
	.st0{fill:#FF5C00;}
</style>
<g>
	<g>
		<g>
			<g>
				<path class="st0" d="M332.3,250.2H225.7c-5.9,0-10.7,4.8-10.7,10.7c0,5.9,4.8,10.7,10.7,10.7h106.7c5.9,0,10.7-4.8,10.7-10.7
					C343,255,338.2,250.2,332.3,250.2z"/>
				<path class="st0" d="M332.3,292.9H225.7c-5.9,0-10.7,4.8-10.7,10.7s4.8,10.7,10.7,10.7h106.7c5.9,0,10.7-4.8,10.7-10.7
					C343,297.7,338.2,292.9,332.3,292.9z"/>
				<path class="st0" d="M289.7,335.6h-64c-5.9,0-10.7,4.8-10.7,10.7c0,5.9,4.8,10.7,10.7,10.7h64c5.9,0,10.7-4.8,10.7-10.7
					C300.3,340.3,295.6,335.6,289.7,335.6z"/>
				<path class="st0" d="M385.7,335.6V218.2c0-3-1.2-5.6-3.1-7.6L339.9,168c-1.9-1.9-4.6-3.1-7.6-3.1H215
					c-23.5,0-42.7,19.1-42.7,42.7v128H151c0-23.5-19.1-42.7-42.7-42.7H87c-23.5,0-42.7,19.1-42.7,42.7c-23.5,0-42.7,19.1-42.7,42.7
					v256c0,23.5,19.1,42.7,42.7,42.7h341.3c23.5,0,42.7-19.1,42.7-42.7v-256C428.3,354.7,409.2,335.6,385.7,335.6z M129.7,356.9
					c0,8.9-5.7,17-14.2,20c-4.3,1.5-7.1,5.5-7.1,10.1v153.3c0,4.5,2.8,8.5,7.1,10.1c8.5,3,14.2,11.1,14.2,20v21.3
					c0,11.8-9.6,21.3-21.3,21.3H87c-11.8,0-21.3-9.6-21.3-21.3v-21.3c0-8.9,5.7-17,14.2-20c4.3-1.5,7.1-5.5,7.1-10.1V386.9
					c0-4.5-2.8-8.5-7.1-10.1c-8.5-3-14.2-11.1-14.2-20v-21.3c0-11.8,9.6-21.3,21.3-21.3h21.3c11.8,0,21.3,9.6,21.3,21.3L129.7,356.9
					L129.7,356.9z M193.7,207.6c0-11.8,9.6-21.3,21.3-21.3h106.7v16c0,14.7,12,26.7,26.7,26.7h16v149.3H193.7V207.6z M236.3,634.2
					c-11.8,0-21.3-9.6-21.3-21.3s9.6-21.3,21.3-21.3s21.3,9.6,21.3,21.3C257.7,624.7,248.1,634.2,236.3,634.2z M236.3,570.2
					c-11.8,0-21.3-9.6-21.3-21.3s9.6-21.3,21.3-21.3s21.3,9.6,21.3,21.3C257.7,560.7,248.1,570.2,236.3,570.2z M236.3,506.2
					c-11.8,0-21.3-9.6-21.3-21.3s9.6-21.3,21.3-21.3s21.3,9.6,21.3,21.3S248.1,506.2,236.3,506.2z M300.3,634.2
					c-11.8,0-21.3-9.6-21.3-21.3s9.6-21.3,21.3-21.3s21.3,9.6,21.3,21.3C321.7,624.7,312.1,634.2,300.3,634.2z M300.3,570.2
					c-11.8,0-21.3-9.6-21.3-21.3s9.6-21.3,21.3-21.3s21.3,9.6,21.3,21.3C321.7,560.7,312.1,570.2,300.3,570.2z M300.3,506.2
					c-11.8,0-21.3-9.6-21.3-21.3s9.6-21.3,21.3-21.3s21.3,9.6,21.3,21.3S312.1,506.2,300.3,506.2z M364.3,634.2
					c-11.8,0-21.3-9.6-21.3-21.3s9.6-21.3,21.3-21.3s21.3,9.6,21.3,21.3C385.7,624.7,376.1,634.2,364.3,634.2z M364.3,570.2
					c-11.8,0-21.3-9.6-21.3-21.3s9.6-21.3,21.3-21.3s21.3,9.6,21.3,21.3C385.7,560.7,376.1,570.2,364.3,570.2z M364.3,506.2
					c-11.8,0-21.3-9.6-21.3-21.3s9.6-21.3,21.3-21.3s21.3,9.6,21.3,21.3S376.1,506.2,364.3,506.2z"/>
			</g>
		</g>
	</g>
</g>
</svg>
