<?xml version="1.0" encoding="utf-8"?>
<!-- Generator: Adobe Illustrator 19.0.0, SVG Export Plug-In . SVG Version: 6.00 Build 0)  -->
<svg version="1.1" id="Capa_1" xmlns="http://www.w3.org/2000/svg" xmlns:xlink="http://www.w3.org/1999/xlink" x="0px" y="0px"
	 viewBox="-41 164.9 512 512" style="enable-background:new -41 164.9 512 512;" xml:space="preserve">
<style type="text/css">
	.st0{fill:#9CCEFD;}
	.st1{fill:#C4E2FE;}
	.st2{fill:#F7F0EB;}
	.st3{fill:#1FBD66;}
	.st4{fill:#06B24B;}
	.st5{fill:#FFFBF5;}
	.st6{fill:#828282;}
	.st7{fill:#CECECE;}
</style>
<path class="st0" d="M215,237.4l-21.3,183.5L215,604.4c17,0,33.4-2.3,49-6.6c77.5-21.5,134.3-186.9,133.9-191.9
	C390.2,311.7,311.1,237.4,215,237.4z"/>
<path class="st1" d="M35.1,457.2C52,541.1,126.3,604.4,215,604.4v-72.5l-10-15l10-15V237.4c-59.5,0-112.5,28.5-146,72.5
	C45.5,340.7,32.7,445.5,35.1,457.2z"/>
<path class="st2" d="M264,331.2h57.7v30H264V331.2z"/>
<path class="st3" d="M172.3,428.2c0-36.6-26.1-67.2-60.7-74.2v-44.2H69c-23.5,30.8-37.5,69.3-37.5,111c0,12.4,1.3,24.6,3.6,36.3
	h137.2L172.3,428.2z"/>
<path class="st4" d="M398.5,420.9c0-5.1-0.2-10.1-0.6-15h-91.2v15c0,15.3-12.4,27.7-27.7,27.7h-15v149.2
	C341.5,576.2,398.5,505.1,398.5,420.9L398.5,420.9z"/>
<path class="st5" d="M172.3,501.9H215v30h-42.7L172.3,501.9z"/>
<path class="st6" d="M423.6,272.4L402.1,294c25.3,37.1,38.9,81,38.9,126.9c0,60.4-23.5,117.1-66.2,159.8
	c-42.7,42.7-99.4,66.2-159.8,66.2l-10.7,19.3l10.7,10.7c68.4,0,132.7-26.6,181-75c48.4-48.4,75-112.6,75-181
	C471,366.9,454.4,315.5,423.6,272.4L423.6,272.4z"/>
<path class="st6" d="M215,194.9c45.9,0,89.8,13.6,126.9,38.9l21.6-21.6c-43.1-30.8-94.5-47.4-148.4-47.4l-10.7,21.3L215,194.9z"/>
<g>
	<path class="st7" d="M88.1,608l-21.6,21.6c43.1,30.8,94.5,47.4,148.4,47.4v-30C169.1,646.9,125.2,633.3,88.1,608z"/>
	<path class="st7" d="M-41,420.9c0,54,16.6,105.4,47.4,148.4l21.6-21.6C2.6,510.6-11,466.8-11,420.9c0-60.4,23.5-117.1,66.2-159.8
		s99.4-66.2,159.8-66.2v-30c-68.4,0-132.7,26.6-181,75S-41,352.5-41,420.9z"/>
</g>
</svg>
